<svg xmlns="http://www.w3.org/2000/svg" xmlns:xlink="http://www.w3.org/1999/xlink" width="500" zoomAndPan="magnify" viewBox="0 0 375 374.999991" height="500" preserveAspectRatio="xMidYMid meet" version="1.0"><defs><g/><clipPath id="b75e8ebb69"><path d="M 108 188 L 125.402344 188 L 125.402344 206 L 108 206 Z M 108 188 " clip-rule="nonzero"/></clipPath><clipPath id="47049de1c1"><path d="M 10 134.125 L 125 134.125 L 125 186 L 10 186 Z M 10 134.125 " clip-rule="nonzero"/></clipPath></defs><path fill="#1d9974" d="M 27.382812 190.460938 L 27.382812 203.960938 C 27.382812 205.039062 26.664062 205.757812 25.582031 205.757812 L 12.085938 205.757812 C 11.003906 205.757812 10.285156 205.039062 10.285156 203.960938 L 10.285156 190.460938 C 10.285156 189.5625 11.003906 188.660156 12.085938 188.660156 L 25.402344 188.660156 C 26.484375 188.660156 27.382812 189.378906 27.382812 190.460938 Z M 27.382812 190.460938 " fill-opacity="1" fill-rule="nonzero"/><g clip-path="url(#b75e8ebb69)"><path fill="#1d9974" d="M 125.296875 190.460938 L 125.296875 203.960938 C 125.296875 205.039062 124.578125 205.757812 123.496094 205.757812 L 110 205.757812 C 109.097656 205.757812 108.199219 205.039062 108.199219 203.960938 L 108.199219 190.460938 C 108.199219 189.5625 109.097656 188.660156 110 188.660156 L 123.496094 188.660156 C 124.578125 188.660156 125.296875 189.378906 125.296875 190.460938 Z M 125.296875 190.460938 " fill-opacity="1" fill-rule="nonzero"/></g><g clip-path="url(#47049de1c1)"><path fill="#1d9974" d="M 124.039062 135.921875 L 124.039062 146.902344 C 124.039062 147.984375 123.316406 148.703125 122.238281 148.703125 L 111.257812 148.703125 C 110.359375 148.703125 109.457031 147.984375 109.457031 146.902344 L 109.457031 143.304688 L 86.601562 143.304688 C 103.878906 150.144531 116.296875 166.160156 118.277344 185.0625 L 114.679688 185.0625 C 112.339844 163.820312 96.140625 146.902344 74.71875 143.84375 L 74.71875 146.902344 C 74.71875 147.984375 73.820312 148.703125 72.921875 148.703125 L 61.941406 148.703125 C 60.859375 148.703125 60.140625 147.984375 60.140625 146.902344 L 60.140625 143.84375 C 39.261719 147.261719 23.421875 164.183594 21.082031 185.0625 L 17.304688 185.0625 C 19.285156 166.160156 31.703125 150.144531 48.980469 143.304688 L 24.683594 143.304688 L 24.683594 146.902344 C 24.683594 147.984375 23.964844 148.703125 22.882812 148.703125 L 11.902344 148.703125 C 11.003906 148.703125 10.105469 147.984375 10.105469 146.902344 L 10.105469 135.921875 C 10.105469 134.84375 11.003906 134.125 11.902344 134.125 L 22.882812 134.125 C 23.964844 134.125 24.683594 134.84375 24.683594 135.921875 L 24.683594 139.703125 L 59.960938 139.703125 L 59.960938 135.921875 C 59.960938 134.84375 60.679688 134.125 61.761719 134.125 L 72.742188 134.125 C 73.640625 134.125 74.539062 134.84375 74.539062 135.921875 L 74.539062 139.703125 L 109.277344 139.703125 L 109.277344 135.921875 C 109.277344 134.84375 110.179688 134.125 111.078125 134.125 L 122.058594 134.125 C 123.316406 134.125 124.039062 134.84375 124.039062 135.921875 Z M 124.039062 135.921875 " fill-opacity="1" fill-rule="nonzero"/></g><path fill="#1d9974" d="M 64.460938 191.902344 C 64.460938 193.519531 65.722656 194.78125 67.339844 194.78125 C 68.960938 194.78125 70.222656 193.519531 70.222656 191.902344 C 70.222656 190.28125 68.960938 189.019531 67.339844 189.019531 C 65.902344 189.019531 64.460938 190.28125 64.460938 191.902344 Z M 64.460938 191.902344 " fill-opacity="1" fill-rule="nonzero"/><path fill="#1d9974" d="M 51.683594 211.699219 L 82.640625 211.699219 L 88.757812 190.820312 C 88.941406 190.28125 88.757812 189.742188 88.578125 189.378906 L 69.320312 154.101562 L 69.320312 185.78125 C 72.019531 186.5 74 189.019531 74 192.082031 C 74 195.679688 71.121094 198.558594 67.519531 198.558594 C 63.921875 198.558594 61.042969 195.679688 61.042969 192.082031 C 61.042969 189.199219 63.019531 186.679688 65.722656 185.78125 L 65.722656 154.101562 L 45.5625 189.378906 C 45.382812 189.742188 45.203125 190.28125 45.382812 190.820312 Z M 51.683594 211.699219 " fill-opacity="1" fill-rule="nonzero"/><path fill="#1d9974" d="M 84.078125 215.300781 L 50.242188 215.300781 C 47.363281 215.300781 45.203125 217.640625 45.203125 220.339844 L 45.203125 233.839844 C 45.203125 236.71875 47.542969 238.878906 50.242188 238.878906 L 84.078125 238.878906 C 86.960938 238.878906 89.121094 236.539062 89.121094 233.839844 L 89.121094 220.339844 C 89.121094 217.640625 86.78125 215.300781 84.078125 215.300781 Z M 84.078125 215.300781 " fill-opacity="1" fill-rule="nonzero"/><g fill="#111111" fill-opacity="1"><g transform="translate(145.885497, 169.82095)"><g><path d="M 10.09375 0 L 4.078125 0 L 4.078125 -31.40625 L 11.1875 -31.40625 L 23.796875 -11.171875 L 24.359375 -11.25 L 24.359375 -31.40625 L 30.328125 -31.40625 L 30.328125 0 L 23.96875 0 L 10.625 -21.609375 L 10.09375 -21.515625 Z M 10.09375 0 "/></g></g></g><g fill="#111111" fill-opacity="1"><g transform="translate(180.309666, 169.82095)"><g><path d="M 10.28125 -13.78125 L 10.28125 -5.203125 L 25.28125 -5.203125 L 25.28125 0 L 4.078125 0 L 4.078125 -31.40625 L 24.9375 -31.40625 L 24.9375 -26.203125 L 10.28125 -26.203125 L 10.28125 -18.859375 L 23.09375 -18.859375 L 23.09375 -13.78125 Z M 10.28125 -13.78125 "/></g></g></g><g fill="#111111" fill-opacity="1"><g transform="translate(207.303542, 169.82095)"><g><path d="M 6.890625 0 L 0.53125 0 L 9.84375 -16.15625 L 0.984375 -31.40625 L 7.578125 -31.40625 L 14.09375 -20.140625 L 14.625 -20.140625 L 21.234375 -31.40625 L 27.515625 -31.40625 L 18.65625 -16.15625 L 27.96875 0 L 21.390625 0 L 14.40625 -12.109375 L 13.875 -12.109375 Z M 6.890625 0 "/></g></g></g><g fill="#111111" fill-opacity="1"><g transform="translate(235.800657, 169.82095)"><g><path d="M 25.171875 -31.40625 L 25.171875 -26.1875 L 16.109375 -26.1875 L 16.109375 0 L 9.921875 0 L 9.921875 -26.1875 L 0.859375 -26.1875 L 0.859375 -31.40625 Z M 25.171875 -31.40625 "/></g></g></g><g fill="#111111" fill-opacity="1"><g transform="translate(261.828159, 169.82095)"><g><path d="M 15.25 0.453125 C 12.625 0.453125 10.351562 -0.144531 8.4375 -1.34375 C 6.53125 -2.539062 5.054688 -4.34375 4.015625 -6.75 C 2.984375 -9.164062 2.46875 -12.148438 2.46875 -15.703125 C 2.46875 -19.273438 3.085938 -22.269531 4.328125 -24.6875 C 5.578125 -27.101562 7.304688 -28.898438 9.515625 -30.078125 C 11.734375 -31.253906 14.300781 -31.84375 17.21875 -31.84375 C 20.226562 -31.84375 22.789062 -31.285156 24.90625 -30.171875 C 27.03125 -29.054688 28.519531 -27.394531 29.375 -25.1875 L 24.84375 -22.4375 L 24.3125 -22.46875 C 23.664062 -23.863281 22.757812 -24.882812 21.59375 -25.53125 C 20.425781 -26.175781 18.96875 -26.5 17.21875 -26.5 C 14.519531 -26.5 12.453125 -25.644531 11.015625 -23.9375 C 9.585938 -22.226562 8.875 -19.484375 8.875 -15.703125 C 8.875 -11.910156 9.539062 -9.15625 10.875 -7.4375 C 12.21875 -5.71875 14.195312 -4.859375 16.8125 -4.859375 C 19.070312 -4.859375 20.738281 -5.363281 21.8125 -6.375 C 22.894531 -7.394531 23.4375 -8.914062 23.4375 -10.9375 L 23.4375 -12.28125 L 16 -12.28125 L 16 -17.328125 L 29.59375 -17.328125 L 29.59375 0 L 23.671875 0 L 23.671875 -4.203125 L 23.21875 -4.28125 C 22.570312 -2.769531 21.59375 -1.601562 20.28125 -0.78125 C 18.96875 0.0390625 17.289062 0.453125 15.25 0.453125 Z M 15.25 0.453125 "/></g></g></g><g fill="#111111" fill-opacity="1"><g transform="translate(294.577291, 169.82095)"><g><path d="M 10.28125 -13.78125 L 10.28125 -5.203125 L 25.28125 -5.203125 L 25.28125 0 L 4.078125 0 L 4.078125 -31.40625 L 24.9375 -31.40625 L 24.9375 -26.203125 L 10.28125 -26.203125 L 10.28125 -18.859375 L 23.09375 -18.859375 L 23.09375 -13.78125 Z M 10.28125 -13.78125 "/></g></g></g><g fill="#111111" fill-opacity="1"><g transform="translate(321.571167, 169.82095)"><g><path d="M 10.09375 0 L 4.078125 0 L 4.078125 -31.40625 L 11.1875 -31.40625 L 23.796875 -11.171875 L 24.359375 -11.25 L 24.359375 -31.40625 L 30.328125 -31.40625 L 30.328125 0 L 23.96875 0 L 10.625 -21.609375 L 10.09375 -21.515625 Z M 10.09375 0 "/></g></g></g><g fill="#111111" fill-opacity="1"><g transform="translate(136.838623, 211.070948)"><g><path d="M 15.25 0.453125 C 12.625 0.453125 10.351562 -0.144531 8.4375 -1.34375 C 6.53125 -2.539062 5.054688 -4.34375 4.015625 -6.75 C 2.984375 -9.164062 2.46875 -12.148438 2.46875 -15.703125 C 2.46875 -19.273438 3.085938 -22.269531 4.328125 -24.6875 C 5.578125 -27.101562 7.304688 -28.898438 9.515625 -30.078125 C 11.734375 -31.253906 14.300781 -31.84375 17.21875 -31.84375 C 20.226562 -31.84375 22.789062 -31.285156 24.90625 -30.171875 C 27.03125 -29.054688 28.519531 -27.394531 29.375 -25.1875 L 24.84375 -22.4375 L 24.3125 -22.46875 C 23.664062 -23.863281 22.757812 -24.882812 21.59375 -25.53125 C 20.425781 -26.175781 18.96875 -26.5 17.21875 -26.5 C 14.519531 -26.5 12.453125 -25.644531 11.015625 -23.9375 C 9.585938 -22.226562 8.875 -19.484375 8.875 -15.703125 C 8.875 -11.910156 9.539062 -9.15625 10.875 -7.4375 C 12.21875 -5.71875 14.195312 -4.859375 16.8125 -4.859375 C 19.070312 -4.859375 20.738281 -5.363281 21.8125 -6.375 C 22.894531 -7.394531 23.4375 -8.914062 23.4375 -10.9375 L 23.4375 -12.28125 L 16 -12.28125 L 16 -17.328125 L 29.59375 -17.328125 L 29.59375 0 L 23.671875 0 L 23.671875 -4.203125 L 23.21875 -4.28125 C 22.570312 -2.769531 21.59375 -1.601562 20.28125 -0.78125 C 18.96875 0.0390625 17.289062 0.453125 15.25 0.453125 Z M 15.25 0.453125 "/></g></g></g><g fill="#111111" fill-opacity="1"><g transform="translate(169.587755, 211.070948)"><g><path d="M 4.078125 0 L 4.078125 -31.40625 L 16.6875 -31.40625 C 19.9375 -31.40625 22.390625 -30.65625 24.046875 -29.15625 C 25.703125 -27.65625 26.53125 -25.585938 26.53125 -22.953125 C 26.53125 -21.054688 26.046875 -19.5 25.078125 -18.28125 C 24.109375 -17.0625 22.664062 -16.128906 20.75 -15.484375 L 20.75 -15.03125 C 21.738281 -14.601562 22.535156 -13.96875 23.140625 -13.125 C 23.742188 -12.28125 24.320312 -11.023438 24.875 -9.359375 L 28 0 L 21.625 0 L 18.5625 -9.390625 C 18.238281 -10.328125 17.878906 -11.054688 17.484375 -11.578125 C 17.097656 -12.109375 16.597656 -12.488281 15.984375 -12.71875 C 15.378906 -12.957031 14.585938 -13.078125 13.609375 -13.078125 L 10.28125 -13.078125 L 10.28125 0 Z M 15.9375 -18 C 18.945312 -18 20.453125 -19.398438 20.453125 -22.203125 C 20.453125 -25.054688 18.945312 -26.484375 15.9375 -26.484375 L 10.28125 -26.484375 L 10.28125 -18 Z M 15.9375 -18 "/></g></g></g><g fill="#111111" fill-opacity="1"><g transform="translate(198.943862, 211.070948)"><g><path d="M 30.125 0 L 23.609375 0 L 21.234375 -7.234375 L 9.21875 -7.234375 L 6.84375 0 L 0.46875 0 L 11.3125 -31.40625 L 19.28125 -31.40625 Z M 14.921875 -24.84375 L 10.890625 -12.453125 L 19.515625 -12.453125 L 15.46875 -24.84375 Z M 14.921875 -24.84375 "/></g></g></g><g fill="#111111" fill-opacity="1"><g transform="translate(229.54551, 211.070948)"><g><path d="M 16.21875 -31.40625 C 18.46875 -31.40625 20.390625 -30.988281 21.984375 -30.15625 C 23.578125 -29.332031 24.78125 -28.179688 25.59375 -26.703125 C 26.414062 -25.222656 26.828125 -23.503906 26.828125 -21.546875 C 26.828125 -19.578125 26.414062 -17.851562 25.59375 -16.375 C 24.78125 -14.90625 23.578125 -13.757812 21.984375 -12.9375 C 20.390625 -12.113281 18.46875 -11.703125 16.21875 -11.703125 L 10.28125 -11.703125 L 10.28125 0 L 4.078125 0 L 4.078125 -31.40625 Z M 15.40625 -16.625 C 18.851562 -16.625 20.578125 -18.265625 20.578125 -21.546875 C 20.578125 -24.835938 18.851562 -26.484375 15.40625 -26.484375 L 10.28125 -26.484375 L 10.28125 -16.625 Z M 15.40625 -16.625 "/></g></g></g><g fill="#111111" fill-opacity="1"><g transform="translate(258.235892, 211.070948)"><g><path d="M 24.359375 -19.59375 L 24.359375 -31.40625 L 30.546875 -31.40625 L 30.546875 0 L 24.359375 0 L 24.359375 -14.296875 L 10.28125 -14.296875 L 10.28125 0 L 4.078125 0 L 4.078125 -31.40625 L 10.28125 -31.40625 L 10.28125 -19.59375 Z M 24.359375 -19.59375 "/></g></g></g><g fill="#111111" fill-opacity="1"><g transform="translate(292.874809, 211.070948)"><g><path d="M 10.28125 0 L 4.078125 0 L 4.078125 -31.40625 L 10.28125 -31.40625 Z M 10.28125 0 "/></g></g></g><g fill="#111111" fill-opacity="1"><g transform="translate(307.26295, 211.070948)"><g><path d="M 17.15625 0.453125 C 14.269531 0.453125 11.722656 -0.144531 9.515625 -1.34375 C 7.304688 -2.550781 5.578125 -4.359375 4.328125 -6.765625 C 3.085938 -9.179688 2.46875 -12.160156 2.46875 -15.703125 C 2.46875 -19.234375 3.085938 -22.203125 4.328125 -24.609375 C 5.578125 -27.023438 7.304688 -28.832031 9.515625 -30.03125 C 11.722656 -31.238281 14.269531 -31.84375 17.15625 -31.84375 C 20.175781 -31.84375 22.742188 -31.253906 24.859375 -30.078125 C 26.972656 -28.898438 28.476562 -27.097656 29.375 -24.671875 L 24.84375 -21.90625 L 24.3125 -21.921875 C 23.632812 -23.554688 22.71875 -24.726562 21.5625 -25.4375 C 20.414062 -26.144531 18.945312 -26.5 17.15625 -26.5 C 14.550781 -26.5 12.519531 -25.632812 11.0625 -23.90625 C 9.601562 -22.1875 8.875 -19.453125 8.875 -15.703125 C 8.875 -11.960938 9.601562 -9.226562 11.0625 -7.5 C 12.519531 -5.78125 14.550781 -4.921875 17.15625 -4.921875 C 21.238281 -4.921875 23.738281 -6.90625 24.65625 -10.875 L 25.1875 -10.875 L 29.765625 -8.484375 C 28.910156 -5.503906 27.441406 -3.269531 25.359375 -1.78125 C 23.285156 -0.289062 20.550781 0.453125 17.15625 0.453125 Z M 17.15625 0.453125 "/></g></g></g><g fill="#111111" fill-opacity="1"><g transform="translate(338.057878, 211.070948)"><g><path d="M 13.921875 0.453125 C 11.742188 0.453125 9.804688 0.1875 8.109375 -0.34375 C 6.410156 -0.882812 4.992188 -1.59375 3.859375 -2.46875 C 2.734375 -3.34375 1.867188 -4.300781 1.265625 -5.34375 L 4.6875 -9.515625 L 5.21875 -9.515625 C 6.164062 -8.109375 7.363281 -6.988281 8.8125 -6.15625 C 10.269531 -5.332031 11.972656 -4.921875 13.921875 -4.921875 C 15.578125 -4.921875 16.828125 -5.269531 17.671875 -5.96875 C 18.515625 -6.664062 18.9375 -7.632812 18.9375 -8.875 C 18.9375 -9.613281 18.800781 -10.234375 18.53125 -10.734375 C 18.257812 -11.234375 17.804688 -11.660156 17.171875 -12.015625 C 16.546875 -12.378906 15.695312 -12.691406 14.625 -12.953125 L 10.59375 -13.875 C 7.769531 -14.519531 5.664062 -15.585938 4.28125 -17.078125 C 2.90625 -18.578125 2.21875 -20.523438 2.21875 -22.921875 C 2.21875 -24.691406 2.660156 -26.25 3.546875 -27.59375 C 4.429688 -28.9375 5.722656 -29.976562 7.421875 -30.71875 C 9.117188 -31.46875 11.148438 -31.84375 13.515625 -31.84375 C 15.929688 -31.84375 18 -31.523438 19.71875 -30.890625 C 21.445312 -30.253906 22.90625 -29.28125 24.09375 -27.96875 L 21.03125 -23.75 L 20.484375 -23.75 C 19.597656 -24.6875 18.582031 -25.382812 17.4375 -25.84375 C 16.289062 -26.3125 14.984375 -26.546875 13.515625 -26.546875 C 11.804688 -26.546875 10.507812 -26.242188 9.625 -25.640625 C 8.738281 -25.035156 8.296875 -24.207031 8.296875 -23.15625 C 8.296875 -22.164062 8.601562 -21.375 9.21875 -20.78125 C 9.84375 -20.195312 10.921875 -19.742188 12.453125 -19.421875 L 16.578125 -18.5625 C 19.628906 -17.914062 21.84375 -16.820312 23.21875 -15.28125 C 24.59375 -13.738281 25.28125 -11.726562 25.28125 -9.25 C 25.28125 -7.289062 24.859375 -5.582031 24.015625 -4.125 C 23.171875 -2.675781 21.894531 -1.550781 20.1875 -0.75 C 18.476562 0.0507812 16.390625 0.453125 13.921875 0.453125 Z M 13.921875 0.453125 "/></g></g></g><g fill="#111111" fill-opacity="1"><g transform="translate(157.137614, 235.91181)"><g><path d="M 4.46875 0.109375 C 3.757812 0.109375 3.128906 -0.0507812 2.578125 -0.375 C 2.023438 -0.695312 1.59375 -1.171875 1.28125 -1.796875 C 0.96875 -2.421875 0.8125 -3.171875 0.8125 -4.046875 C 0.8125 -4.921875 0.96875 -5.671875 1.28125 -6.296875 C 1.59375 -6.921875 2.023438 -7.394531 2.578125 -7.71875 C 3.128906 -8.039062 3.757812 -8.203125 4.46875 -8.203125 C 5.226562 -8.203125 5.859375 -8.054688 6.359375 -7.765625 C 6.859375 -7.484375 7.21875 -7.054688 7.4375 -6.484375 L 6.828125 -6.078125 L 6.6875 -6.078125 C 6.46875 -6.535156 6.179688 -6.859375 5.828125 -7.046875 C 5.472656 -7.242188 5.019531 -7.34375 4.46875 -7.34375 C 3.957031 -7.34375 3.503906 -7.226562 3.109375 -7 C 2.710938 -6.78125 2.398438 -6.421875 2.171875 -5.921875 C 1.941406 -5.429688 1.828125 -4.804688 1.828125 -4.046875 C 1.828125 -3.273438 1.941406 -2.644531 2.171875 -2.15625 C 2.398438 -1.664062 2.710938 -1.304688 3.109375 -1.078125 C 3.503906 -0.847656 3.957031 -0.734375 4.46875 -0.734375 C 5.050781 -0.734375 5.53125 -0.863281 5.90625 -1.125 C 6.28125 -1.394531 6.554688 -1.828125 6.734375 -2.421875 L 6.875 -2.421875 L 7.515625 -2.109375 C 7.316406 -1.390625 6.957031 -0.835938 6.4375 -0.453125 C 5.925781 -0.078125 5.269531 0.109375 4.46875 0.109375 Z M 4.46875 0.109375 "/></g></g></g><g fill="#111111" fill-opacity="1"><g transform="translate(172.328696, 235.91181)"><g><path d="M 1.21875 0 L 1.21875 -8.09375 L 4.15625 -8.09375 C 4.695312 -8.09375 5.148438 -8 5.515625 -7.8125 C 5.890625 -7.632812 6.164062 -7.382812 6.34375 -7.0625 C 6.53125 -6.738281 6.625 -6.351562 6.625 -5.90625 C 6.625 -5.40625 6.5 -4.988281 6.25 -4.65625 C 6 -4.332031 5.609375 -4.085938 5.078125 -3.921875 L 5.078125 -3.8125 C 5.335938 -3.707031 5.550781 -3.546875 5.71875 -3.328125 C 5.882812 -3.109375 6.039062 -2.773438 6.1875 -2.328125 L 6.9375 0 L 5.953125 0 L 5.140625 -2.46875 C 5.046875 -2.757812 4.9375 -2.988281 4.8125 -3.15625 C 4.6875 -3.320312 4.523438 -3.441406 4.328125 -3.515625 C 4.140625 -3.585938 3.898438 -3.625 3.609375 -3.625 L 2.171875 -3.625 L 2.171875 0 Z M 4.140625 -4.4375 C 4.640625 -4.4375 5.015625 -4.550781 5.265625 -4.78125 C 5.515625 -5.019531 5.640625 -5.378906 5.640625 -5.859375 C 5.640625 -6.335938 5.515625 -6.691406 5.265625 -6.921875 C 5.015625 -7.160156 4.640625 -7.28125 4.140625 -7.28125 L 2.171875 -7.28125 L 2.171875 -4.4375 Z M 4.140625 -4.4375 "/></g></g></g><g fill="#111111" fill-opacity="1"><g transform="translate(187.077121, 235.91181)"><g><path d="M 2.171875 -3.8125 L 2.171875 -0.78125 L 6.296875 -0.78125 L 6.296875 0 L 1.21875 0 L 1.21875 -8.09375 L 6.203125 -8.09375 L 6.203125 -7.296875 L 2.171875 -7.296875 L 2.171875 -4.59375 L 5.734375 -4.59375 L 5.734375 -3.8125 Z M 2.171875 -3.8125 "/></g></g></g><g fill="#111111" fill-opacity="1"><g transform="translate(201.1671, 235.91181)"><g><path d="M 7.28125 0 L 6.265625 0 L 5.515625 -2.21875 L 2.0625 -2.21875 L 1.3125 0 L 0.328125 0 L 3.140625 -8.09375 L 4.453125 -8.09375 Z M 3.71875 -7.109375 L 2.328125 -3.015625 L 5.25 -3.015625 L 3.859375 -7.109375 Z M 3.71875 -7.109375 "/></g></g></g><g fill="#111111" fill-opacity="1"><g transform="translate(216.026189, 235.91181)"><g><path d="M 6.3125 -8.09375 L 6.3125 -7.28125 L 3.78125 -7.28125 L 3.78125 0 L 2.828125 0 L 2.828125 -7.28125 L 0.296875 -7.28125 L 0.296875 -8.09375 Z M 6.3125 -8.09375 "/></g></g></g><g fill="#111111" fill-opacity="1"><g transform="translate(229.889297, 235.91181)"><g><path d="M 2.171875 -3.8125 L 2.171875 -0.78125 L 6.296875 -0.78125 L 6.296875 0 L 1.21875 0 L 1.21875 -8.09375 L 6.203125 -8.09375 L 6.203125 -7.296875 L 2.171875 -7.296875 L 2.171875 -4.59375 L 5.734375 -4.59375 L 5.734375 -3.8125 Z M 2.171875 -3.8125 "/></g></g></g><g fill="#111111" fill-opacity="1"><g transform="translate(243.979273, 235.91181)"><g/></g></g><g fill="#111111" fill-opacity="1"><g transform="translate(254.013401, 235.91181)"><g><path d="M 3.53125 0 L 2.296875 0 L 0.4375 -8.09375 L 1.375 -8.09375 L 2.890625 -1.40625 L 3.03125 -1.40625 L 4.84375 -8.09375 L 5.734375 -8.09375 L 7.546875 -1.40625 L 7.6875 -1.40625 L 9.203125 -8.09375 L 10.125 -8.09375 L 8.28125 0 L 7.03125 0 L 5.34375 -6.125 L 5.21875 -6.125 Z M 3.53125 0 "/></g></g></g><g fill="#111111" fill-opacity="1"><g transform="translate(271.832766, 235.91181)"><g><path d="M 2.171875 0 L 1.21875 0 L 1.21875 -8.09375 L 2.171875 -8.09375 Z M 2.171875 0 "/></g></g></g><g fill="#111111" fill-opacity="1"><g transform="translate(282.492147, 235.91181)"><g><path d="M 6.3125 -8.09375 L 6.3125 -7.28125 L 3.78125 -7.28125 L 3.78125 0 L 2.828125 0 L 2.828125 -7.28125 L 0.296875 -7.28125 L 0.296875 -8.09375 Z M 6.3125 -8.09375 "/></g></g></g><g fill="#111111" fill-opacity="1"><g transform="translate(296.355256, 235.91181)"><g><path d="M 6.375 -4.8125 L 6.375 -8.09375 L 7.328125 -8.09375 L 7.328125 0 L 6.375 0 L 6.375 -4 L 2.171875 -4 L 2.171875 0 L 1.21875 0 L 1.21875 -8.09375 L 2.171875 -8.09375 L 2.171875 -4.8125 Z M 6.375 -4.8125 "/></g></g></g><g fill="#111111" fill-opacity="1"><g transform="translate(312.166057, 235.91181)"><g/></g></g><g fill="#111111" fill-opacity="1"><g transform="translate(322.200179, 235.91181)"><g><path d="M 4.171875 0.109375 C 3.179688 0.109375 2.429688 -0.140625 1.921875 -0.640625 C 1.410156 -1.140625 1.15625 -1.882812 1.15625 -2.875 L 1.15625 -8.09375 L 2.109375 -8.09375 L 2.109375 -2.890625 C 2.109375 -2.179688 2.273438 -1.648438 2.609375 -1.296875 C 2.953125 -0.941406 3.472656 -0.765625 4.171875 -0.765625 C 5.546875 -0.765625 6.234375 -1.472656 6.234375 -2.890625 L 6.234375 -8.09375 L 7.1875 -8.09375 L 7.1875 -2.875 C 7.1875 -1.882812 6.929688 -1.140625 6.421875 -0.640625 C 5.910156 -0.140625 5.160156 0.109375 4.171875 0.109375 Z M 4.171875 0.109375 "/></g></g></g><g fill="#111111" fill-opacity="1"><g transform="translate(337.795191, 235.91181)"><g><path d="M 3.53125 0.109375 C 3.019531 0.109375 2.5625 0.0390625 2.15625 -0.09375 C 1.757812 -0.226562 1.425781 -0.40625 1.15625 -0.625 C 0.882812 -0.851562 0.679688 -1.101562 0.546875 -1.375 L 1.078125 -2.015625 L 1.21875 -2.015625 C 1.71875 -1.160156 2.488281 -0.734375 3.53125 -0.734375 C 4.144531 -0.734375 4.597656 -0.859375 4.890625 -1.109375 C 5.191406 -1.367188 5.34375 -1.726562 5.34375 -2.1875 C 5.34375 -2.445312 5.289062 -2.671875 5.1875 -2.859375 C 5.09375 -3.046875 4.929688 -3.203125 4.703125 -3.328125 C 4.484375 -3.460938 4.175781 -3.578125 3.78125 -3.671875 L 2.84375 -3.90625 C 2.132812 -4.070312 1.613281 -4.335938 1.28125 -4.703125 C 0.945312 -5.078125 0.78125 -5.550781 0.78125 -6.125 C 0.78125 -6.519531 0.882812 -6.875 1.09375 -7.1875 C 1.300781 -7.507812 1.601562 -7.757812 2 -7.9375 C 2.394531 -8.113281 2.867188 -8.203125 3.421875 -8.203125 C 4.035156 -8.203125 4.550781 -8.113281 4.96875 -7.9375 C 5.382812 -7.769531 5.71875 -7.515625 5.96875 -7.171875 L 5.515625 -6.546875 L 5.375 -6.546875 C 5.132812 -6.828125 4.859375 -7.035156 4.546875 -7.171875 C 4.234375 -7.304688 3.859375 -7.375 3.421875 -7.375 C 2.867188 -7.375 2.445312 -7.265625 2.15625 -7.046875 C 1.875 -6.828125 1.734375 -6.523438 1.734375 -6.140625 C 1.734375 -5.773438 1.835938 -5.484375 2.046875 -5.265625 C 2.253906 -5.054688 2.609375 -4.894531 3.109375 -4.78125 L 4.078125 -4.546875 C 4.859375 -4.359375 5.425781 -4.070312 5.78125 -3.6875 C 6.132812 -3.3125 6.3125 -2.828125 6.3125 -2.234375 C 6.3125 -1.773438 6.207031 -1.367188 6 -1.015625 C 5.800781 -0.660156 5.492188 -0.382812 5.078125 -0.1875 C 4.660156 0.0078125 4.144531 0.109375 3.53125 0.109375 Z M 3.53125 0.109375 "/></g></g></g></svg>